<svg xmlns="http://www.w3.org/2000/svg" viewBox="0 0 200 200" fill="none">
  <defs>
    <linearGradient id="g1" x1="0" y1="0" x2="1" y2="1">
      <stop offset="0%" stop-color="#6366F1"/>
      <stop offset="100%" stop-color="#8B5CF6"/>
    </linearGradient>
    <linearGradient id="g2" x1="0" y1="0" x2="0" y2="1">
      <stop offset="0%" stop-color="#8B5CF6"/>
      <stop offset="100%" stop-color="#3B82F6"/>
    </linearGradient>
    <radialGradient id="globe" cx="0.4" cy="0.35" r="0.6">
      <stop offset="0%" stop-color="#6366F1"/>
      <stop offset="100%" stop-color="#4F46E5"/>
    </radialGradient>
  </defs>
  <!-- Outer ring symbolizing the ecosystem -->
  <circle cx="100" cy="100" r="85" stroke="url(#g1)" stroke-width="3" fill="none" opacity="0.3"/>
  <!-- Inner core circle — the agent core -->
  <circle cx="100" cy="100" r="40" stroke="url(#g1)" stroke-width="2" fill="none"/>
  <circle cx="100" cy="100" r="20" fill="url(#g1)" opacity="0.9"/>
  <!-- Flowing stream lines emanating from core — the extension protocol -->
  <path d="M100 60 Q120 70 140 60 Q160 50 170 70" stroke="url(#g2)" stroke-width="3" fill="none" stroke-linecap="round" opacity="0.7"/>
  <path d="M100 140 Q80 130 60 140 Q40 150 30 130" stroke="url(#g2)" stroke-width="3" fill="none" stroke-linecap="round" opacity="0.7"/>
  <path d="M140 80 Q150 100 140 120" stroke="url(#g2)" stroke-width="3" fill="none" stroke-linecap="round" opacity="0.7"/>
  <path d="M60 80 Q50 100 60 120" stroke="url(#g2)" stroke-width="3" fill="none" stroke-linecap="round" opacity="0.7"/>
  <!-- Node dots on streams — the extensions -->
  <circle cx="170" cy="70" r="5" fill="#3B82F6" opacity="0.8"/>
  <circle cx="30" cy="130" r="5" fill="#3B82F6" opacity="0.8"/>
  <circle cx="140" cy="120" r="4" fill="#6366F1" opacity="0.8"/>
  <circle cx="60" cy="120" r="4" fill="#6366F1" opacity="0.8"/>
  <!-- Globe in center (replaces D) -->
  <circle cx="100" cy="100" r="14" fill="url(#globe)"/>
  <path d="M87 94 Q100 100 113 94" stroke="white" stroke-width="0.9" fill="none" opacity="0.5"/>
  <path d="M86 100 Q100 106 114 100" stroke="white" stroke-width="0.9" fill="none" opacity="0.5"/>
  <path d="M87 106 Q100 112 113 106" stroke="white" stroke-width="0.9" fill="none" opacity="0.5"/>
  <path d="M95 87 Q101 100 95 113" stroke="white" stroke-width="0.9" fill="none" opacity="0.5"/>
  <path d="M100 86 Q106 100 100 114" stroke="white" stroke-width="0.9" fill="none" opacity="0.5"/>
  <path d="M105 87 Q111 100 105 113" stroke="white" stroke-width="0.9" fill="none" opacity="0.5"/>
</svg>
